<svg width="500" height="101" viewBox="0 0 500 101" fill="none" xmlns="http://www.w3.org/2000/svg">
<path d="M181.386 30.2299H172.406V21.7992H181.386V20.354C181.386 13.4489 182.923 8.35035 185.998 5.05839C189.072 1.68613 193.724 0 199.954 0C201.41 0 202.785 0.0802908 204.08 0.240872C205.455 0.321163 206.992 0.562038 208.691 0.963497V9.39415C207.801 9.15327 206.709 8.99269 205.415 8.9124C204.201 8.75181 202.987 8.67152 201.774 8.67152C197.971 8.67152 195.261 9.51458 193.643 11.2007C192.106 12.8868 191.337 15.8576 191.337 20.1131V21.7992H206.871V30.2299H191.337V81.2955H181.386V30.2299Z" fill="#71D7BE"/>
<path d="M229.928 11.4416H219.249V1.20439H229.928V11.4416Z" fill="#71D7BE"/>
<path d="M229.564 81.2955H219.613V21.7992H229.564V81.2955Z" fill="#71D7BE"/>
<path d="M151.549 11.4416H162.228V1.20439H151.549V11.4416Z" fill="#71D7BE"/>
<path d="M151.913 81.2955H161.864V21.7992H151.913V81.2955Z" fill="#71D7BE"/>
<path d="M142.072 72.0218V80.332C140.777 80.8941 138.997 81.3357 136.732 81.6568C134.548 82.0583 132.444 82.259 130.421 82.259C123.14 82.259 117.922 80.6532 114.767 77.4415C111.692 74.2298 110.155 68.6897 110.155 60.8211V30.2299H101.175V21.7992H110.276L111.854 7.3467H120.106V21.7992H141.465V30.2299H120.106V60.4598C120.106 65.3576 120.996 68.6897 122.776 70.4561C124.637 72.2225 127.873 73.1057 132.484 73.1057C133.941 73.1057 135.599 72.9853 137.46 72.7444C139.402 72.5036 140.939 72.2627 142.072 72.0218Z" fill="#71D7BE"/>
<path fill-rule="evenodd" clip-rule="evenodd" d="M4.24745 77.9232C7.15999 80.8138 11.6906 82.259 17.8393 82.259C21.6418 82.259 25.4443 81.6568 29.2467 80.4525C33.1301 79.2481 36.2854 77.6824 38.7125 75.7554H38.9552L39.4406 81.2955H48.5423V41.0693C48.5423 34.0839 46.8029 28.9452 43.324 25.6532C39.8451 22.281 34.5055 20.5949 27.305 20.5949C23.0171 20.5949 19.1742 20.7554 15.7763 21.0766C12.4592 21.3978 9.18259 21.9598 5.94643 22.7627V31.3138C8.77807 30.6715 11.6097 30.2299 14.4413 29.989C17.273 29.6678 20.5496 29.5073 24.2712 29.5073C29.2872 29.5073 32.9279 30.4708 35.1932 32.3978C37.4585 34.3248 38.5911 37.4963 38.5911 41.9123V47.6934C36.2449 47.2116 33.7369 46.8503 31.0671 46.6094C28.3972 46.3686 25.687 46.2481 22.9362 46.2481C14.6031 46.2481 8.69716 47.6131 5.2183 50.343C1.73943 52.9926 0 57.5291 0 63.9525C0 70.2955 1.41582 74.9525 4.24745 77.9232ZM12.4996 56.3649C14.684 54.9999 18.527 54.3174 24.0284 54.3174C26.4556 54.3174 28.8018 54.4379 31.0671 54.6788C33.4133 54.8393 35.9213 55.1204 38.5911 55.5218V68.2882C36.4876 69.7335 33.7774 70.9379 30.4603 71.9014C27.1432 72.8649 23.9071 73.3466 20.7518 73.3466C16.7066 73.3466 13.7941 72.5838 12.0142 71.0583C10.2343 69.4525 9.34439 66.8831 9.34439 63.3503C9.34439 59.978 10.3961 57.6496 12.4996 56.3649Z" fill="#71D7BE"/>
<path d="M64.0958 81.2955H74.0469V34.6861C76.555 33.3211 79.1843 32.3175 81.9351 31.6751C84.7667 30.9525 87.6388 30.5912 90.5513 30.5912C92.3312 30.5912 93.6257 30.6313 94.4347 30.7116C95.3246 30.7116 96.0528 30.7919 96.6191 30.9525V21.4379C96.3764 21.3576 96.0123 21.3175 95.5269 21.3175H92.9784C89.9041 21.3175 86.7893 21.7992 83.634 22.7627C80.4788 23.646 77.3235 25.0109 74.1683 26.8576H73.6829L73.1974 21.7992H64.0958V81.2955Z" fill="#71D7BE"/>
<path d="M287.405 77.8028V69.4926C284.897 70.5364 281.863 71.4196 278.303 72.1422C274.743 72.7846 271.305 73.1057 267.988 73.1057C262.001 73.1057 257.956 71.6203 255.852 68.6495C253.749 65.5984 252.697 59.8576 252.697 51.4269C252.697 42.9963 254.032 37.2554 256.702 34.2043C259.371 31.073 264.509 29.5073 272.114 29.5073C274.46 29.5073 276.563 29.5474 278.424 29.6277C280.366 29.708 282.834 29.9489 285.827 30.3503V21.5584C282.834 21.1569 280.366 20.916 278.424 20.8357C276.563 20.6752 274.46 20.5949 272.114 20.5949C261.434 20.5949 253.87 22.9635 249.42 27.7007C244.971 32.3576 242.746 40.2664 242.746 51.4269C242.746 62.8284 244.445 70.8174 247.843 75.3941C251.321 79.9707 257.308 82.259 265.803 82.259C270.172 82.259 274.339 81.8576 278.303 81.0546C282.348 80.1714 285.382 79.0875 287.405 77.8028Z" fill="#71D7BE"/>
<path d="M309.182 11.4416H298.503V1.20439H309.182V11.4416Z" fill="#71D7BE"/>
<path d="M308.818 81.2955H298.867V21.7992H308.818V81.2955Z" fill="#71D7BE"/>
<path fill-rule="evenodd" clip-rule="evenodd" d="M324.821 77.9232C327.734 80.8138 332.264 82.259 338.413 82.259C342.215 82.259 346.018 81.6568 349.82 80.4525C353.704 79.2481 356.859 77.6824 359.286 75.7554H359.529L360.014 81.2955H369.116V41.0693C369.116 34.0839 367.376 28.9452 363.898 25.6532C360.419 22.281 355.079 20.5949 347.879 20.5949C343.591 20.5949 339.748 20.7554 336.35 21.0766C333.033 21.3978 329.756 21.9598 326.52 22.7627V31.3138C329.352 30.6715 332.183 30.2299 335.015 29.989C337.847 29.6678 341.123 29.5073 344.845 29.5073C349.861 29.5073 353.501 30.4708 355.767 32.3978C358.032 34.3248 359.165 37.4963 359.165 41.9123V47.6934C356.819 47.2116 354.311 46.8503 351.641 46.6094C348.971 46.3686 346.261 46.2481 343.51 46.2481C335.177 46.2481 329.271 47.6131 325.792 50.343C322.313 52.9926 320.574 57.5291 320.574 63.9525C320.574 70.2955 321.989 74.9525 324.821 77.9232ZM333.073 56.3649C335.258 54.9999 339.101 54.3174 344.602 54.3174C347.029 54.3174 349.375 54.4379 351.641 54.6788C353.987 54.8393 356.495 55.1204 359.165 55.5218V68.2882C357.061 69.7335 354.351 70.9379 351.034 71.9014C347.717 72.8649 344.481 73.3466 341.325 73.3466C337.28 73.3466 334.368 72.5838 332.588 71.0583C330.808 69.4525 329.918 66.8831 329.918 63.3503C329.918 59.978 330.97 57.6496 333.073 56.3649Z" fill="#71D7BE"/>
<path d="M394.621 1.20439V81.2955H384.669V1.20439H394.621Z" fill="#71D7BE"/>
<path d="M0 89.3247V97.9962C1.19942 98.2127 190.729 99.3224 314.619 100.048L314.681 100.048C374.608 100.399 419.161 100.66 419.583 100.686C420.796 100.766 422.172 100.806 423.709 100.806C430.019 100.806 434.752 99.1203 437.908 95.7481C441.144 92.3758 442.762 87.3576 442.762 80.6933V21.7993H432.811V79.6094C432.811 84.1057 431.88 87.2773 430.019 89.124C428.24 90.9707 425.165 91.8941 420.796 91.8941C420.149 91.8941 419.461 91.8539 418.733 91.7736C417.924 91.7736 1.69898 89.5656 0 89.3247Z" fill="#298A90"/>
<path d="M408.196 81.2955H418.147V71.2992H408.196V81.2955Z" fill="#298A90"/>
<path d="M443.126 11.4416H432.447V1.20439H443.126V11.4416Z" fill="#298A90"/>
<path d="M468.569 31.3138C470.591 30.1095 474.192 29.5073 479.37 29.5073C482.606 29.5073 485.64 29.6277 488.471 29.8686C491.303 30.0292 493.77 30.27 495.874 30.5912V21.7993C492.961 21.3175 490.17 20.9963 487.5 20.8358C484.911 20.6752 481.999 20.5949 478.763 20.5949C470.915 20.5949 465.09 22.0401 461.288 24.9306C457.566 27.8211 455.705 32.3978 455.705 38.6605C455.786 43.2372 456.757 46.7299 458.618 49.1386C460.559 51.5474 463.472 53.0328 467.355 53.5948L482.767 55.8832C485.518 56.2846 487.419 57.0474 488.471 58.1715C489.523 59.2153 490.049 60.9014 490.049 63.2299C490.049 66.9233 489.118 69.4926 487.258 70.9379C485.397 72.3831 481.958 73.1058 476.942 73.1058C472.978 73.1058 469.095 72.8649 465.292 72.3831C461.571 71.8211 458.415 71.1386 455.826 70.3357V79.6094C458.415 80.4123 461.692 81.0546 465.656 81.5364C469.621 82.0181 473.909 82.259 478.52 82.259C486.206 82.259 491.707 80.7335 495.024 77.6824C498.341 74.551 500 69.5328 500 62.6277C500 57.7299 499.029 54.1569 497.087 51.9087C495.146 49.5802 491.748 48.0547 486.894 47.3321L471.481 45.0437C469.459 44.7226 467.962 44.0802 466.991 43.1167C466.101 42.0729 465.656 40.5876 465.656 38.6605C465.656 34.9671 466.627 32.5182 468.569 31.3138Z" fill="#298A90"/>
</svg>
