<svg width="63" height="14" viewBox="0 0 63 14" fill="none" xmlns="http://www.w3.org/2000/svg">
<path d="M22.885 4.63999H21.775V3.58999H22.885V3.40999C22.885 2.54999 23.075 1.91499 23.455 1.50499C23.835 1.08499 24.41 0.874992 25.18 0.874992C25.36 0.874992 25.53 0.884992 25.69 0.904992C25.86 0.914992 26.05 0.944992 26.26 0.994992V2.04499C26.15 2.01499 26.015 1.99499 25.855 1.98499C25.705 1.96499 25.555 1.95499 25.405 1.95499C24.935 1.95499 24.6 2.05999 24.4 2.26999C24.21 2.47999 24.115 2.84999 24.115 3.37999V3.58999H26.035V4.63999H24.115V11H22.885V4.63999Z" fill="#71D7BE"/>
<path d="M28.885 2.29999H27.565V1.02499H28.885V2.29999Z" fill="#71D7BE"/>
<path d="M28.84 11H27.61V3.58999H28.84V11Z" fill="#71D7BE"/>
<path d="M19.1969 2.29999H20.5169V1.02499H19.1969V2.29999Z" fill="#71D7BE"/>
<path d="M19.2419 11H20.4719V3.58999H19.2419V11Z" fill="#71D7BE"/>
<path d="M18.0255 9.84499V10.88C17.8655 10.95 17.6455 11.005 17.3655 11.045C17.0955 11.095 16.8355 11.12 16.5855 11.12C15.6855 11.12 15.0405 10.92 14.6505 10.52C14.2705 10.12 14.0805 9.42999 14.0805 8.44999V4.63999H12.9705V3.58999H14.0955L14.2905 1.78999H15.3105V3.58999H17.9505V4.63999H15.3105V8.40499C15.3105 9.01499 15.4205 9.42999 15.6405 9.64999C15.8705 9.86999 16.2705 9.97999 16.8405 9.97999C17.0205 9.97999 17.2255 9.96499 17.4555 9.93499C17.6955 9.90499 17.8855 9.87499 18.0255 9.84499Z" fill="#71D7BE"/>
<path fill-rule="evenodd" clip-rule="evenodd" d="M0.989996 10.58C1.35 10.94 1.91 11.12 2.67 11.12C3.14 11.12 3.61 11.045 4.08 10.895C4.56 10.745 4.95 10.55 5.25 10.31H5.28L5.34 11H6.465V5.98999C6.465 5.11999 6.25 4.47999 5.82 4.06999C5.39 3.64999 4.73 3.43999 3.84 3.43999C3.31 3.43999 2.835 3.45999 2.415 3.49999C2.005 3.53999 1.6 3.60999 1.2 3.70999V4.77499C1.55 4.69499 1.9 4.63999 2.25 4.60999C2.6 4.56999 3.005 4.54999 3.465 4.54999C4.085 4.54999 4.535 4.66999 4.815 4.90999C5.095 5.14999 5.235 5.54499 5.235 6.09499V6.81499C4.945 6.75499 4.635 6.70999 4.305 6.67999C3.975 6.64999 3.64 6.63499 3.3 6.63499C2.27 6.63499 1.54 6.80499 1.11 7.14499C0.679996 7.47499 0.464996 8.03999 0.464996 8.83999C0.464996 9.62999 0.639996 10.21 0.989996 10.58ZM2.01 7.89499C2.28 7.72499 2.755 7.63999 3.435 7.63999C3.735 7.63999 4.025 7.65499 4.305 7.68499C4.595 7.70499 4.905 7.73999 5.235 7.78999V9.37999C4.975 9.55999 4.64 9.70999 4.23 9.82999C3.82 9.94999 3.42 10.01 3.03 10.01C2.53 10.01 2.17 9.91499 1.95 9.72499C1.73 9.52499 1.62 9.20499 1.62 8.76499C1.62 8.34499 1.75 8.05499 2.01 7.89499Z" fill="#71D7BE"/>
<path d="M8.38746 11H9.61746V5.19499C9.92746 5.02499 10.2525 4.89999 10.5925 4.81999C10.9425 4.72999 11.2975 4.68499 11.6575 4.68499C11.8775 4.68499 12.0375 4.68999 12.1375 4.69999C12.2475 4.69999 12.3375 4.70999 12.4075 4.72999V3.54499C12.3775 3.53499 12.3325 3.52999 12.2725 3.52999H11.9575C11.5775 3.52999 11.1925 3.58999 10.8025 3.70999C10.4125 3.81999 10.0225 3.98999 9.63246 4.21999H9.57246L9.51246 3.58999H8.38746V11Z" fill="#71D7BE"/>
<path d="M35.9892 10.565V9.52999C35.6792 9.65999 35.3042 9.76999 34.8642 9.85999C34.4242 9.93999 33.9992 9.97999 33.5892 9.97999C32.8492 9.97999 32.3492 9.79499 32.0892 9.42499C31.8292 9.04499 31.6992 8.32999 31.6992 7.27999C31.6992 6.22999 31.8642 5.51499 32.1942 5.13499C32.5242 4.74499 33.1592 4.54999 34.0992 4.54999C34.3892 4.54999 34.6492 4.55499 34.8792 4.56499C35.1192 4.57499 35.4242 4.60499 35.7942 4.65499V3.55999C35.4242 3.50999 35.1192 3.47999 34.8792 3.46999C34.6492 3.44999 34.3892 3.43999 34.0992 3.43999C32.7792 3.43999 31.8442 3.73499 31.2942 4.32499C30.7442 4.90499 30.4692 5.88999 30.4692 7.27999C30.4692 8.69999 30.6792 9.69499 31.0992 10.265C31.5292 10.835 32.2692 11.12 33.3192 11.12C33.8592 11.12 34.3742 11.07 34.8642 10.97C35.3642 10.86 35.7392 10.725 35.9892 10.565Z" fill="#71D7BE"/>
<path d="M38.681 2.29999H37.361V1.02499H38.681V2.29999Z" fill="#71D7BE"/>
<path d="M38.636 11H37.406V3.58999H38.636V11Z" fill="#71D7BE"/>
<path fill-rule="evenodd" clip-rule="evenodd" d="M40.614 10.58C40.974 10.94 41.534 11.12 42.294 11.12C42.764 11.12 43.234 11.045 43.704 10.895C44.184 10.745 44.574 10.55 44.874 10.31H44.904L44.964 11H46.089V5.98999C46.089 5.11999 45.874 4.47999 45.444 4.06999C45.014 3.64999 44.354 3.43999 43.464 3.43999C42.934 3.43999 42.459 3.45999 42.039 3.49999C41.629 3.53999 41.224 3.60999 40.824 3.70999V4.77499C41.174 4.69499 41.524 4.63999 41.874 4.60999C42.224 4.56999 42.629 4.54999 43.089 4.54999C43.709 4.54999 44.159 4.66999 44.439 4.90999C44.719 5.14999 44.859 5.54499 44.859 6.09499V6.81499C44.569 6.75499 44.259 6.70999 43.929 6.67999C43.599 6.64999 43.264 6.63499 42.924 6.63499C41.894 6.63499 41.164 6.80499 40.734 7.14499C40.304 7.47499 40.089 8.03999 40.089 8.83999C40.089 9.62999 40.264 10.21 40.614 10.58ZM41.634 7.89499C41.904 7.72499 42.379 7.63999 43.059 7.63999C43.359 7.63999 43.649 7.65499 43.929 7.68499C44.219 7.70499 44.529 7.73999 44.859 7.78999V9.37999C44.599 9.55999 44.264 9.70999 43.854 9.82999C43.444 9.94999 43.044 10.01 42.654 10.01C42.154 10.01 41.794 9.91499 41.574 9.72499C41.354 9.52499 41.244 9.20499 41.244 8.76499C41.244 8.34499 41.374 8.05499 41.634 7.89499Z" fill="#71D7BE"/>
<path d="M49.2415 1.02499V11H48.0115V1.02499H49.2415Z" fill="#71D7BE"/>
<path d="M0.464996 12V13.08C0.613248 13.1069 24.0397 13.2452 39.353 13.3355L39.3607 13.3355C46.7678 13.3792 52.2747 13.4117 52.3269 13.415C52.4769 13.425 52.6469 13.43 52.8369 13.43C53.6169 13.43 54.2019 13.22 54.5919 12.8C54.9919 12.38 55.1919 11.755 55.1919 10.925V3.58999H53.9619V10.79C53.9619 11.35 53.8469 11.745 53.6169 11.975C53.3969 12.205 53.0169 12.32 52.4769 12.32C52.3969 12.32 52.3119 12.315 52.2219 12.305C52.1219 12.305 0.674996 12.03 0.464996 12Z" fill="#298A90"/>
<path d="M50.9195 11H52.1495V9.75499H50.9195V11Z" fill="#298A90"/>
<path d="M55.2369 2.29999H53.9169V1.02499H55.2369V2.29999Z" fill="#298A90"/>
<path d="M58.3818 4.77499C58.6318 4.62499 59.0768 4.54999 59.7168 4.54999C60.1168 4.54999 60.4918 4.56499 60.8418 4.59499C61.1918 4.61499 61.4968 4.64499 61.7568 4.68499V3.58999C61.3968 3.52999 61.0518 3.48999 60.7218 3.46999C60.4018 3.44999 60.0418 3.43999 59.6418 3.43999C58.6718 3.43999 57.9518 3.61999 57.4818 3.97999C57.0218 4.33999 56.7918 4.90999 56.7918 5.68999C56.8018 6.25999 56.9218 6.69499 57.1518 6.99499C57.3918 7.29499 57.7518 7.47999 58.2318 7.54999L60.1368 7.83499C60.4768 7.88499 60.7118 7.97999 60.8418 8.11999C60.9718 8.24999 61.0368 8.45999 61.0368 8.74999C61.0368 9.20999 60.9218 9.52999 60.6918 9.70999C60.4618 9.88999 60.0368 9.97999 59.4168 9.97999C58.9268 9.97999 58.4468 9.94999 57.9768 9.88999C57.5168 9.81999 57.1268 9.73499 56.8068 9.63499V10.79C57.1268 10.89 57.5318 10.97 58.0218 11.03C58.5118 11.09 59.0418 11.12 59.6118 11.12C60.5618 11.12 61.2418 10.93 61.6518 10.55C62.0618 10.16 62.2668 9.53499 62.2668 8.67499C62.2668 8.06499 62.1468 7.61999 61.9068 7.33999C61.6668 7.04999 61.2468 6.85999 60.6468 6.76999L58.7418 6.48499C58.4918 6.44499 58.3068 6.36499 58.1868 6.24499C58.0768 6.11499 58.0218 5.92999 58.0218 5.68999C58.0218 5.22999 58.1418 4.92499 58.3818 4.77499Z" fill="#298A90"/>
</svg>
