<svg width="420" height="85" viewBox="0 0 420 85" fill="none" xmlns="http://www.w3.org/2000/svg">
<path d="M152.364 25.3931H144.821V18.3114H152.364V17.0973C152.364 11.2971 153.656 7.0143 156.238 4.24905C158.82 1.41635 162.728 0 167.961 0C169.184 0 170.34 0.0674443 171.427 0.202333C172.582 0.269777 173.873 0.472112 175.301 0.809338V7.89109C174.553 7.68875 173.636 7.55386 172.548 7.48641C171.529 7.35152 170.509 7.28407 169.49 7.28407C166.296 7.28407 164.019 7.99225 162.66 9.4086C161.369 10.8249 160.723 13.3204 160.723 16.895V18.3114H173.771V25.3931H160.723V68.2882H152.364V25.3931Z" fill="#71D7BE"/>
<path d="M193.14 9.61093H184.169V1.01169H193.14V9.61093Z" fill="#71D7BE"/>
<path d="M192.834 68.2882H184.475V18.3114H192.834V68.2882Z" fill="#71D7BE"/>
<path d="M127.301 9.61093H136.272V1.01169H127.301V9.61093Z" fill="#71D7BE"/>
<path d="M127.607 68.2882H135.966V18.3114H127.607V68.2882Z" fill="#71D7BE"/>
<path d="M119.34 60.4983V67.4789C118.253 67.951 116.758 68.322 114.855 68.5917C113.02 68.929 111.253 69.0976 109.554 69.0976C103.438 69.0976 99.0543 67.7487 96.4039 65.0509C93.8214 62.3531 92.5302 57.6993 92.5302 51.0897V25.3931H84.9867V18.3114H92.6321L93.9574 6.17123H100.889V18.3114H118.83V25.3931H100.889V50.7862C100.889 54.9004 101.637 57.6993 103.132 59.1831C104.695 60.6669 107.413 61.4088 111.287 61.4088C112.51 61.4088 113.903 61.3077 115.466 61.1053C117.097 60.903 118.389 60.7007 119.34 60.4983Z" fill="#71D7BE"/>
<path fill-rule="evenodd" clip-rule="evenodd" d="M3.56786 65.4555C6.01439 67.8836 9.82011 69.0976 14.985 69.0976C18.1791 69.0976 21.3732 68.5917 24.5673 67.5801C27.8293 66.5684 30.4797 65.2532 32.5185 63.6345H32.7224L33.1301 68.2882H40.7755V34.4982C40.7755 28.6305 39.3144 24.314 36.3922 21.5487C33.4699 18.716 28.9846 17.2997 22.9362 17.2997C19.3344 17.2997 16.1063 17.4346 13.2521 17.7044C10.4657 17.9741 7.71337 18.4463 4.995 19.1207V26.3036C7.37358 25.7641 9.75215 25.3931 12.1307 25.1908C14.5093 24.921 17.2616 24.7861 20.3878 24.7861C24.6012 24.7861 27.6594 25.5954 29.5623 27.2141C31.4651 28.8328 32.4166 31.4969 32.4166 35.2064V40.0624C30.4457 39.6578 28.339 39.3543 26.0963 39.1519C23.8537 38.9496 21.5771 38.8484 19.2664 38.8484C12.2666 38.8484 7.30562 39.995 4.38337 42.2881C1.46112 44.5138 0 48.3245 0 53.7201C0 59.0482 1.18929 62.9601 3.56786 65.4555ZM10.4997 47.3465C12.3346 46.1999 15.5627 45.6267 20.1839 45.6267C22.2227 45.6267 24.1935 45.7278 26.0963 45.9302C28.0672 46.065 30.1739 46.3011 32.4166 46.6383V57.3621C30.6496 58.5761 28.373 59.5878 25.5867 60.3971C22.8003 61.2065 20.082 61.6112 17.4315 61.6112C14.0336 61.6112 11.587 60.9704 10.0919 59.689C8.59684 58.3401 7.84929 56.1818 7.84929 53.2142C7.84929 50.3815 8.73276 48.4256 10.4997 47.3465Z" fill="#71D7BE"/>
<path d="M53.8404 68.2882H62.1994V29.1363C64.3062 27.9897 66.5148 27.1467 68.8255 26.6071C71.204 26.0001 73.6166 25.6966 76.0631 25.6966C77.5582 25.6966 78.6456 25.7303 79.3252 25.7978C80.0727 25.7978 80.6843 25.8652 81.16 26.0001V18.0079C80.9562 17.9404 80.6504 17.9067 80.2426 17.9067H78.1019C75.5194 17.9067 72.903 18.3114 70.2526 19.1207C67.6022 19.8626 64.9518 21.0092 62.3014 22.5604H61.8936L61.4858 18.3114H53.8404V68.2882Z" fill="#71D7BE"/>
<path d="M241.42 65.3544V58.3738C239.313 59.2506 236.765 59.9925 233.774 60.5995C230.784 61.139 227.896 61.4088 225.11 61.4088C220.081 61.4088 216.683 60.1611 214.916 57.6656C213.149 55.1027 212.265 50.2804 212.265 43.1986C212.265 36.1169 213.387 31.2946 215.629 28.7316C217.872 26.1013 222.187 24.7861 228.576 24.7861C230.546 24.7861 232.313 24.8198 233.876 24.8873C235.507 24.9547 237.58 25.157 240.095 25.4943V18.109C237.58 17.7718 235.507 17.5695 233.876 17.502C232.313 17.3671 230.546 17.2997 228.576 17.2997C219.605 17.2997 213.251 19.2893 209.513 23.2686C205.775 27.1804 203.906 33.8238 203.906 43.1986C203.906 52.7758 205.334 59.4866 208.188 63.331C211.11 67.1754 216.139 69.0976 223.275 69.0976C226.945 69.0976 230.444 68.7604 233.774 68.0859C237.172 67.344 239.721 66.4335 241.42 65.3544Z" fill="#71D7BE"/>
<path d="M259.713 9.61093H250.742V1.01169H259.713V9.61093Z" fill="#71D7BE"/>
<path d="M259.407 68.2882H251.048V18.3114H259.407V68.2882Z" fill="#71D7BE"/>
<path fill-rule="evenodd" clip-rule="evenodd" d="M272.85 65.4555C275.296 67.8836 279.102 69.0976 284.267 69.0976C287.461 69.0976 290.655 68.5917 293.849 67.5801C297.111 66.5684 299.762 65.2532 301.8 63.6345H302.004L302.412 68.2882H310.057V34.4982C310.057 28.6305 308.596 24.314 305.674 21.5487C302.752 18.716 298.266 17.2997 292.218 17.2997C288.616 17.2997 285.388 17.4346 282.534 17.7044C279.748 17.9741 276.995 18.4463 274.277 19.1207V26.3036C276.655 25.7641 279.034 25.3931 281.413 25.1908C283.791 24.921 286.543 24.7861 289.67 24.7861C293.883 24.7861 296.941 25.5954 298.844 27.2141C300.747 28.8328 301.698 31.4969 301.698 35.2064V40.0624C299.728 39.6578 297.621 39.3543 295.378 39.1519C293.136 38.9496 290.859 38.8484 288.548 38.8484C281.548 38.8484 276.587 39.995 273.665 42.2881C270.743 44.5138 269.282 48.3245 269.282 53.7201C269.282 59.0482 270.471 62.9601 272.85 65.4555ZM279.782 47.3465C281.616 46.1999 284.845 45.6267 289.466 45.6267C291.504 45.6267 293.475 45.7278 295.378 45.9302C297.349 46.065 299.456 46.3011 301.698 46.6383V57.3621C299.931 58.5761 297.655 59.5878 294.868 60.3971C292.082 61.2065 289.364 61.6112 286.713 61.6112C283.315 61.6112 280.869 60.9704 279.374 59.689C277.879 58.3401 277.131 56.1818 277.131 53.2142C277.131 50.3815 278.015 48.4256 279.782 47.3465Z" fill="#71D7BE"/>
<path d="M331.481 1.01169V68.2882H323.122V1.01169H331.481Z" fill="#71D7BE"/>
<path d="M0 75.0328V82.3168C1.00751 82.4986 160.212 83.4308 264.28 84.0401L264.332 84.0404C314.67 84.3351 352.095 84.5543 352.45 84.5763C353.469 84.6437 354.624 84.6774 355.916 84.6774C361.216 84.6774 365.192 83.2611 367.842 80.4284C370.561 77.5957 371.92 73.3804 371.92 67.7824V18.3114H363.561V66.8719C363.561 70.6488 362.779 73.3129 361.216 74.8642C359.721 76.4154 357.139 77.191 353.469 77.191C352.925 77.191 352.348 77.1573 351.736 77.0898C351.056 77.0898 1.42714 75.2351 0 75.0328Z" fill="#298A90"/>
<path d="M342.885 68.2882H351.244V59.8913H342.885V68.2882Z" fill="#298A90"/>
<path d="M372.226 9.61094H363.255V1.01169H372.226V9.61094Z" fill="#298A90"/>
<path d="M393.598 26.3036C395.297 25.2919 398.321 24.7861 402.67 24.7861C405.389 24.7861 407.937 24.8873 410.316 25.0896C412.694 25.2245 414.767 25.4268 416.534 25.6966V18.3114C414.088 17.9067 411.743 17.6369 409.5 17.502C407.326 17.3671 404.879 17.2997 402.161 17.2997C395.569 17.2997 390.676 18.5137 387.482 20.9417C384.355 23.3698 382.792 27.2141 382.792 32.4749C382.86 36.3192 383.676 39.2531 385.239 41.2765C386.87 43.2998 389.316 44.5475 392.578 45.0197L405.525 46.9418C407.835 47.2791 409.432 47.9198 410.316 48.864C411.199 49.7408 411.641 51.1572 411.641 53.1131C411.641 56.2156 410.859 58.3738 409.296 59.5878C407.733 60.8018 404.845 61.4088 400.632 61.4088C397.302 61.4088 394.04 61.2065 390.845 60.8018C387.719 60.3297 385.069 59.7564 382.894 59.082V66.8719C385.069 67.5463 387.821 68.0859 391.151 68.4906C394.481 68.8952 398.083 69.0976 401.957 69.0976C408.413 69.0976 413.034 67.8161 415.82 65.2532C418.607 62.6229 420 58.4075 420 52.6072C420 48.4931 419.184 45.4918 417.553 43.6033C415.922 41.6474 413.068 40.3659 408.991 39.7589L396.044 37.8367C394.345 37.567 393.088 37.0274 392.273 36.2181C391.525 35.3413 391.151 34.0935 391.151 32.4749C391.151 29.3724 391.967 27.3153 393.598 26.3036Z" fill="#298A90"/>
</svg>
